<svg width="477" height="380" viewBox="0 0 477 380" fill="none" xmlns="http://www.w3.org/2000/svg">
<path d="M380.876 0C381.506 0.231795 382.08 0.991242 382.388 1.56272C408.179 49.5038 409.162 109.263 395.855 161.041C401.368 171.082 405.492 181.826 408.114 192.977C410.18 201.848 411.734 211.63 414.906 220.078C419.561 232.474 426.875 242.618 435.137 252.731C446.275 248.271 462.46 241.564 474.291 237.897C475.467 237.532 476.552 239.505 476.344 241.117C474.228 243.504 443.61 254.719 438.407 256.637C440.353 259.446 443.119 262.157 445.392 265.412C442.19 271.128 439.319 275.021 435.419 280.188C445.991 278.828 456.633 277.923 467.161 276.244C469.779 275.826 472.753 275.788 472.633 279.346C471.811 280.325 471.381 280.621 470.042 280.85C457.148 283.057 443.711 283.822 430.791 285.763C425.083 292.969 420.947 297.731 414.579 304.353C429.569 309.866 445.002 314.331 460.153 319.366C461.568 319.836 462.247 320.379 462.836 321.771C462.823 323.147 462.735 323.064 461.887 324.193C461.533 324.297 461.179 324.401 460.825 324.506C445.798 320.066 424.66 313.45 410.387 308.291C369.839 348.171 316.753 372.811 260.121 378.038C244.737 379.589 232.516 379.382 217.126 378.376C164.284 374.922 116.721 359.902 75.4503 326.267C69.6436 321.691 63.354 315.469 58.2233 310.198C51.4296 312.129 12.1712 325.726 8.65467 324.867C7.91462 324.685 7.96098 324.446 7.60191 323.852C8.33775 318.879 19.1537 317.209 23.5814 315.826C33.7728 312.701 43.9363 309.485 54.0696 306.177C48.1129 300.178 41.7145 292.056 36.4894 285.385C29.9022 284.651 23.2535 284.125 16.679 283.34C14.1958 283.043 -1.64798 283.127 4.04153 277.47C5.92707 276.944 29.3822 279.79 32.7453 280.209C29.9891 276.303 26.2188 271.237 24.4319 266.963C26.9159 263.67 30.6187 259.652 33.3741 256.161C27.055 253.547 2.69039 245.379 0.0302291 241.508C-0.0110725 240.112 -0.149311 240.814 0.857942 239.443C3.55266 238.43 9.63242 241.533 12.5454 242.652C20.6127 245.707 28.6404 248.867 36.626 252.129C45.6339 241.29 55.9914 225.729 59.3275 212.101C63.0227 197.009 65.3491 185.022 71.584 170.601C68.8926 162.775 66.7643 154.767 65.2159 146.638C57.3155 106.362 57.9814 58.7064 74.0166 20.4409C76.5183 14.4707 80.3863 5.97355 83.9626 0.656604C124.604 14.405 154.942 42.2136 178.037 77.6065C211.099 66.1727 255.486 65.6105 288.842 75.9966C311.235 40.9021 341.402 14.0173 380.876 0Z" fill="black"/>
<path d="M291.105 82.0509C292.67 79.9488 294.226 77.4985 295.69 75.3036C316.132 44.6688 343.962 19.6004 378.778 6.35522C379.822 8.21548 380.89 10.5419 381.849 12.4948C386.974 22.1476 391.062 35.3717 393.461 46.0275C402.157 84.6521 400.175 122.751 390.229 160.836C398.795 179.611 403.596 192.47 407.089 213.086C409.396 226.709 421.136 244.249 430.054 254.781L409.804 262.557C406.528 263.813 402.92 264.955 399.819 266.519C397.829 267.523 396.266 268.405 397.351 270.546C398.385 271.249 398.488 271.495 400.067 271.139C404.027 270.247 408.567 268.259 412.374 266.785L433.033 258.836C435.067 261.235 437.115 263.622 439.176 265.996C435.573 271.169 431.885 276.282 428.114 281.335C422.319 281.88 402.979 282.661 399.994 286.057C399.722 287.52 399.656 286.797 400.42 288.266C403.343 289.937 418.243 287.01 423.205 286.823C419.053 291.942 413.511 297.731 408.934 302.591C406.173 301.794 400.198 299.457 397.931 300.387C396.736 301.957 396.947 301.14 396.831 302.788C398.177 305.041 401.946 305.665 404.564 306.428C364 348.305 298.27 373.075 240.513 373.783C176.255 374.572 113.753 356.567 66.9235 311.16C65.8935 310.166 64.8753 309.158 63.868 308.139C66.8578 307.247 76.1372 305.277 76.9935 302.194C76.4625 300.579 76.8924 301.255 75.6491 300.09C72.9005 299.563 62.9653 303.245 59.8003 304.28C54.1512 298.673 49.2287 292.587 44.2489 286.388C48.6412 286.798 71.3723 289.6 73.5115 288.007C74.1226 286.71 74.0249 287.36 73.917 286.008C70.7544 282.509 46.9917 282.204 40.155 280.99C36.9048 276.63 33.7617 272.192 30.729 267.678L38.6488 258.274C46.2668 261.114 53.8385 264.074 61.363 267.152C65.2479 268.749 74.0131 273.904 77.3754 270.453C77.2944 269.727 77.361 269.066 76.5384 268.621C66.5897 263.235 52.1241 258.765 41.9672 254.043C49.8019 244.172 56.5147 234.595 61.2998 222.781C65.7393 211.819 67.3306 200.316 70.5109 188.994C72.2919 182.72 74.9512 176.757 77.2481 170.666C61.0823 124.738 60.7123 59.7523 82.2051 15.305C82.4967 14.71 82.8019 14.1216 83.1196 13.54C84.0679 11.3552 85.2243 9.26234 86.3361 7.15343C117.109 19.5228 139.477 36.2323 160.628 62.1031C166.535 69.3267 170.735 76.4575 176.167 83.6693C216.182 70.5792 250.599 70.7385 291.105 82.0509Z" fill="#2D3339"/>
<path d="M291.105 82.0509C292.67 79.9488 294.226 77.4985 295.69 75.3036C316.132 44.6688 343.962 19.6004 378.778 6.35522C379.822 8.21548 380.89 10.5419 381.849 12.4948C348.762 25.3531 325.711 43.7323 304.904 72.9932C300.846 78.7021 298.529 83.6988 295.041 89.4844L294.216 89.3588C286.198 88.1012 275.683 85.1587 267.115 83.4712C235.249 77.1984 201.941 78.1003 171.497 90.5574C166.216 82.383 161.899 75.3449 156.048 67.517C137.129 42.2033 112.202 25.37 83.1196 13.54C84.0679 11.3552 85.2243 9.26234 86.3361 7.15343C117.109 19.5228 139.477 36.2323 160.628 62.1031C166.535 69.3267 170.735 76.4575 176.167 83.6693C216.182 70.5792 250.599 70.7385 291.105 82.0509Z" fill="#7B7E82"/>
<path d="M144.952 180.955C155.779 180.155 168.004 184.927 176.404 191.647C188.985 201.711 195.68 217.549 197.506 233.267C198.478 241.645 197.465 246.444 192.153 253.023C182.41 265.042 168.258 272.658 152.86 274.17C141.236 275.861 125.746 269.887 117.093 262.271C107.549 253.872 100.834 241.406 100.01 228.65C99.1903 217.11 103.001 205.719 110.599 196.996C119.489 186.888 131.695 181.824 144.952 180.955Z" fill="#F9B76C"/>
<path d="M141.324 198.6C150.424 179.728 159.305 190.899 163.233 205.145C167.78 221.636 167.78 242.619 159.697 258.191C147.832 278.629 137.646 251.317 136.695 240.862C135.921 232.369 134.941 220.704 137.162 213.171C134.421 212.547 132.251 210.461 131.519 207.748C130.788 205.035 131.615 202.141 133.669 200.224C135.724 198.307 138.669 197.683 141.324 198.6Z" fill="black"/>
<path d="M137.162 213.171C134.421 212.548 132.251 210.461 131.519 207.748C130.788 205.036 131.615 202.141 133.669 200.225C135.724 198.308 138.669 197.683 141.324 198.6C145.133 199.917 147.249 203.981 146.142 207.857C145.034 211.732 141.091 214.066 137.162 213.171Z" fill="#F2F2F2"/>
<path d="M316.978 181.789C326.735 180.332 340.023 184.88 347.944 190.668C357.389 197.609 363.61 208.086 365.184 219.699C369.234 247.906 349.165 269.879 321.853 273.79C309.684 275.231 297.424 271.968 287.58 264.669C281.974 260.53 273.137 251.957 272.8 244.55C271.495 215.894 285.62 185.008 316.978 181.789Z" fill="#F9B76C"/>
<path d="M310.361 198.859C319.773 180.33 329.426 195.701 332.391 207.945C336.178 223.581 336.232 243.892 328.421 258.498C317.784 276.307 307.358 251.918 306.06 242.317C305.192 235.896 302.993 218.687 306.074 213.836C297.381 210.066 299.359 199.118 310.361 198.859Z" fill="black"/>
<path d="M306.074 213.836C297.381 210.066 299.359 199.117 310.361 198.859C314.952 201.069 318.21 205.335 315.311 210.37C314.278 212.148 312.575 213.438 310.584 213.95C309.013 214.36 307.642 214.107 306.074 213.836Z" fill="#F2F2F2"/>
<path d="M368.238 27.6299C370.025 27.6779 369.95 27.6215 371.492 28.4795C371.848 29.1698 372.322 29.845 371.783 30.6323C368.119 36.1709 356.968 44.5138 356.43 51.6362C354.888 72.0763 359.122 92.6217 358.068 113.332C361.357 117.332 371.552 127.2 371.66 131.812C370.877 133.076 371.384 132.511 369.797 133.282C369.41 133.232 369.024 133.182 368.637 133.133C365.469 129.957 360.775 124.098 357.841 121.006C345.425 108.304 338.038 103.881 323.42 94.906C330.82 74.6943 341.933 56.0445 356.186 39.9175C359.944 35.6045 363.796 31.2383 368.238 27.6299Z" fill="black"/>
<path d="M95.5328 27.9434C95.9357 27.9821 97.211 28.117 97.5178 28.364C117.233 44.2128 134.536 72.721 142.745 95.7125C129.137 103.782 122.713 107.88 111.18 119.125C108.679 121.638 98.8293 133.633 97.8566 133.749C88.305 134.882 107.439 115.088 108.481 113.911C106.268 94.5721 112.999 68.5538 109.234 49.5407C108.195 44.2929 95.9922 34.5415 94.3148 30.7207C94.3873 29.0753 94.4185 29.5322 95.5328 27.9434Z" fill="black"/>
<path d="M230.17 270.289C234.532 269.51 241.622 270.09 246.103 270.408C271.547 272.218 252.468 289.926 240.81 295.595C240.806 300.312 240.265 303.393 242.368 307.7C244.717 312.55 248.964 316.218 254.105 317.835C258.647 319.294 263.591 318.795 267.749 316.46C278.757 310.304 273.96 300.859 279.09 298.351C281.534 298.764 282.227 300.217 281.883 302.51C278.15 327.401 251.894 330.549 238.235 311.643C237.28 311.598 235.78 314.001 235.044 314.911C225.9 326.219 210.103 328.024 198.105 320.136C194.047 317.467 186.595 305.245 189.587 300.599C191.232 299.73 190.348 299.997 192.404 300.03C193.037 300.514 195.638 309.791 198.013 312.553C207.989 324.149 226.018 321.682 232.955 308.115C235.302 303.524 235.432 300.868 235.76 295.746C222.329 289.932 201.815 273.414 230.17 270.289Z" fill="black"/>
</svg>
