<svg width="481" height="316" viewBox="0 0 481 316" fill="none" xmlns="http://www.w3.org/2000/svg">
<path d="M183.667 0C186.638 0.349 192.689 8.23602 194.61 10.619C213.19 33.664 223.472 64.166 224.76 93.469C227.128 96.319 229.872 99.317 232.336 102.124C259.707 77.811 295.233 64.701 331.836 65.406C367.704 65.907 404.247 79.11 429.45 105.169C448.717 125.354 460.611 151.448 463.209 179.232C464.061 188.116 463.797 196.838 463.619 205.741C475.2 217.644 482.77 230.773 480.364 248.052C478.26 263.161 467.023 277.851 454.649 286.56C415.438 314.157 361.958 319.536 315.507 313.011C293.794 309.684 269.104 304.651 255.604 286.446C246.982 287.685 240.346 287.803 231.654 288.028C219.018 288.091 206.585 288.134 193.971 289.259C178.192 290.667 148.342 302.184 137.876 284.65C118.485 289.652 87.141 285.046 96.895 257.44C75.447 253.258 65.068 248.871 46.227 238.34C37.997 243.354 29.354 250.929 21.288 256.403C20.061 257.236 20.334 257.043 19.07 256.753L18.689 255.722C20.109 252.13 38.869 239.881 43.345 236.673C39.484 234.126 35.653 231.533 31.854 228.895C27.964 229.635 11.351 233.879 8.806 232.717C7.897 232.302 8.19297 232.465 7.77597 231.433C10.257 228.966 23.127 228.684 27.365 226.382C27.204 225.948 26.266 223.288 26.308 223.137C26.995 220.658 28.486 216.873 29.359 214.603C24.099 213.89 2.67298 213.373 0.0319824 211.386L0 210.233C0.314 210.003 0.627993 209.774 0.942993 209.544C7.35199 209.643 25.232 211.204 30.494 211.767C36.712 197.001 35.07 188.594 34.168 173.22C33.83 167.469 34.652 159.791 35.458 154.031C16.233 125.246 8.13597 90.45 12.677 56.134C37.308 55.846 61.107 67.069 80.294 81.771C100.401 67.957 118.975 62.584 143.149 62.604C149.804 36.314 161.697 16.531 183.667 0Z" fill="black"/>
<path d="M327.378 68.3906C329.823 68.3916 332.267 68.4206 334.711 68.4776C399.554 69.9466 455.814 115.25 460.446 181.902C461.04 190.456 460.827 198.34 460.628 206.893C496.517 241.033 471.07 278.787 432.99 295.686C386.016 316.531 329.8 317.755 281.31 301.49C272.291 298.465 260.46 291.076 256.587 281.998C254.662 277.555 254.663 272.513 256.588 268.07C259.768 260.606 267.955 256.257 275.787 256.903C285.664 257.717 295.948 263.805 305.571 266.872C339.492 277.684 380.812 280.044 414.185 266.414C425.464 261.808 440.825 252.276 446.078 240.421C446.512 239.441 446.452 239.735 446.045 238.786C443.402 239.045 437.282 248.346 434.017 250.953C395.89 281.39 338.676 276.235 295.887 260.038C304.55 253.667 309.27 254.54 319.484 253.183C309.143 239.722 303.995 229.266 304.195 211.919C304.354 198.239 307.447 187.78 313.975 175.841C323.85 159.338 337.694 147.795 356.096 141.94C360.552 140.522 368.275 140.366 370.028 138.253L369.507 137.178C367.851 136.228 365.15 136.859 363.288 137.182C352.557 139.041 341.557 144.025 332.803 150.442C316.168 162.542 305.096 180.822 302.078 201.17C299.235 219.658 302.955 235.947 313.978 250.992C307.262 251.57 300.242 252.704 294.955 257.258C293.335 258.653 293.253 259.113 291.455 258.171C290.675 253.87 294.169 246.545 291.037 243.419L290.178 243.856C289.296 246.011 288.708 253.412 287.982 256.913C275.926 252.793 261.887 252.142 254.522 265.461C251.421 271.069 252.143 277.711 254.1 283.656C235.38 286.151 215.26 284.147 196.169 286.124C181.196 286.994 135.46 303.292 139.814 273.429C140.88 266.115 149.112 258.802 155.762 256.078C165.069 252.265 175.014 249.341 184.464 245.47C195.113 241.107 207.419 238.719 218.948 238.73C222.155 238.733 229.03 239.646 231.353 238.156L231.469 237.231C228.292 234.997 213.577 235.753 209.108 235.874L209.377 235.407C213.336 228.694 223.507 222.666 229.646 216.954C242.795 204.896 253.698 190.6 261.848 174.729C265.953 174.968 290.27 175.336 292.598 174.2L292.692 173.305C289.81 171.11 269.255 172.025 263.513 171.755C266.106 167.327 268.374 161.099 270.258 156.22C273.525 154.901 286.952 150.389 287.679 147.63L286.828 147.157C284.012 146.888 275.602 150.835 272.302 152.177L273.563 145.486C271.433 143.618 267.856 141.172 265.469 139.438C268.795 137.152 282.923 127.765 283.965 125.044L283.125 123.914C280.675 123.924 266.17 135.154 262.768 137.523C247.424 128.445 243.425 118.837 234.173 104.479C260.175 80.5406 292.518 69.7736 327.378 68.3906Z" fill="#2C3237"/>
<path d="M183.713 3.58789C185.704 4.23889 191.545 11.4719 193.214 13.6019C211.406 36.8199 220.366 65.8869 222.236 94.9099C231.733 104.113 238.017 117.655 246.244 127.749C249.849 132.171 255.692 136.317 260.325 139.744C256.5 142.651 242.717 151.602 241.986 155.462L242.824 155.811C247.416 154.308 257.604 145.13 262.943 141.493C265.579 143.1 268.059 144.859 270.599 146.613C269.879 149.189 268.994 151.695 268.136 154.229C267.8 154.335 267.466 154.446 267.134 154.563C263.398 155.87 248.349 160.732 246.823 163.934L247.504 164.262C252.882 163.888 261.093 160.161 266.339 158.076C264.752 162.392 262.137 167.57 260.138 171.807C257.116 171.717 250.099 171.016 248.027 173.229C250.05 175.136 255.61 174.744 258.361 174.738C237.078 218.373 189.841 247.054 142.902 254.491C110.411 259.789 77.0959 253.291 48.9769 236.17C50.9949 234.921 53.5789 233.886 53.3869 231.25C50.4779 230.355 48.2179 232.73 45.9839 234.403C42.8279 232.608 38.9509 229.913 35.8499 227.885C38.6629 227.629 49.7819 226.741 49.6449 223.348C46.3489 221.048 32.3839 227.781 29.7749 223.47C30.1859 220.593 31.6889 217.545 32.8389 214.808C36.9689 215.209 44.5829 216.097 48.2039 214.682L48.2859 214.032C45.2089 212.155 37.4819 212.153 33.5989 211.947C40.4979 193.346 37.2929 189.137 37.0589 171.021C36.7129 144.108 48.4269 116.203 67.4769 97.2119C91.3399 73.4209 112.963 65.9889 145.677 65.4799C151.064 41.0879 163.419 18.6719 183.713 3.58789Z" fill="#2C3237"/>
<path d="M181.997 18.3691C182.048 18.3891 182.1 18.4101 182.152 18.4301C182.521 18.6691 182.89 18.9081 183.26 19.1461C182.932 23.1611 178.527 30.5511 179.171 34.8231C180.484 43.5381 184.375 50.3231 187.416 58.3701C189.016 62.6031 190.124 66.2341 191.57 70.2431L195.171 72.5091C197.59 74.0441 202.638 76.7821 203.23 79.4321L202.31 80.0061C200.185 79.8191 199.656 79.0271 197.715 77.7321C189.289 71.7921 177.908 67.6531 167.722 66.2481C169.162 50.6311 172.667 31.2981 181.997 18.3691Z" fill="black"/>
<path d="M136.965 186.795C151.471 185.399 140.182 198.942 136.301 203.461C140.575 214.496 153.143 217.51 160.33 207.244C162.56 204.059 160.313 199.204 163.439 197.74L164.183 198.553C167.398 210.303 157.12 217.339 146.219 215.987C142.865 215.572 140.912 214.386 138.013 212.817L136.207 216.684C135.842 217.248 135.453 217.797 135.041 218.329C130.356 224.478 119.559 226.289 113.844 221.027C112.189 219.508 111.205 217.394 111.108 215.15L111.887 214.367C114.315 214.656 116.561 220.216 121.413 221.016C129.825 222.402 133.188 217.029 134.938 209.76C134.43 207.921 133.741 205.93 133.152 204.098C129.551 203.532 120.016 201.507 119.731 196.852C119.292 189.666 131.651 187.676 136.965 186.795Z" fill="black"/>
<path d="M80.3969 167.872C88.0899 167.79 95.6009 170.206 101.803 174.758C103.937 176.342 108.126 180.13 108.517 182.818C106.916 183.956 105.073 182.614 103.003 181.704C95.273 178.306 86.8819 177.699 78.5389 178.341C71.6639 178.913 65.974 180.995 59.959 184.176C58.227 185.092 54.7629 187.275 53.0359 187.203L52.5959 186.485C52.8539 184.031 54.237 182.194 55.586 180.223C61.525 171.539 70.4909 168.666 80.3969 167.872Z" fill="black"/>
<path d="M189.293 132.373C194.816 132.315 202.588 133.415 205.937 138.232C204.177 140.144 198.224 139.572 195.251 139.844C182.155 141.042 172.44 147.604 164.057 157.157C161.976 159.808 159.97 163.464 157.991 166.417L156.926 166.527C156.389 165.743 156.245 165.801 156.299 164.813C157.352 145.522 170.752 133.572 189.293 132.373Z" fill="black"/>
<path d="M16.0378 59.3828C36.8468 60.2188 61.7568 70.2808 77.6958 83.7648C72.0278 88.3048 67.3368 93.1678 62.3048 98.3468C56.8478 92.5118 51.2578 86.2308 44.5688 81.8178C40.5898 79.1938 28.9978 70.3868 24.2358 71.5608L23.7778 72.4668C24.7928 73.9238 33.4168 78.0348 36.5368 81.1048C41.3238 88.2308 41.4088 98.4678 43.3458 106.785C44.4338 111.459 45.4018 114.657 46.9028 119.208C42.1888 129.729 38.4778 138.162 36.0898 149.593C22.2608 128.416 14.5908 100.338 14.5248 75.2708C14.5158 72.0248 14.0558 61.4108 16.0378 59.3828Z" fill="#2C3237"/>
<path d="M143.165 257.859C144.355 257.907 143.907 257.837 145.034 258.379C144.502 263.388 134.797 264.916 137.163 282.145C125.187 284.617 115.228 284.78 104.194 278.703C97.313 272.936 95.793 265.734 100.151 257.9C117.263 259.946 126.197 259.779 143.165 257.859Z" fill="#2C3237"/>
</svg>
